# Blender 4.2.0
# www.blender.org
mtllib cornell.mtl
o GreenWall
v 1.000000 -1.000000 -1.000000
v 1.000000 -1.000000 1.000000
v 1.000000 1.000000 -1.000000
v 1.000000 1.000000 1.000000
vn -1.0000 -0.0000 -0.0000
s 0
usemtl BlueWall
f 1//1 2//1 3//1
f 4//1 3//1 2//1
o Floor
v -1.000000 -1.000000 -1.000000
v -1.000000 -1.000000 1.000000
v 1.000000 -1.000000 -1.000000
v 1.000000 -1.000000 1.000000
vn -0.0000 1.0000 -0.0000
s 0
usemtl Floor
f 5//2 6//2 7//2
f 8//2 7//2 6//2
o RedWall
v -1.000000 -1.000000 1.000000
v -1.000000 -1.000000 -1.000000
v -1.000000 1.000000 1.000000
v -1.000000 1.000000 -1.000000
vn 1.0000 -0.0000 -0.0000
s 0
usemtl GreenWall
f 9//3 10//3 11//3
f 12//3 11//3 10//3
o LeftBox
v -0.488900 -1.000500 -0.004800
v -0.771000 -1.000500 -0.417600
v -0.358100 -1.000500 -0.699700
v -0.076000 -1.000500 -0.286800
v -0.488900 0.015800 -0.004800
v -0.076000 0.015800 -0.286800
v -0.358100 0.015800 -0.699700
v -0.771000 0.015800 -0.417600
vn -0.0000 -1.0000 -0.0000
vn -0.0000 1.0000 -0.0000
vn 0.5640 -0.0000 0.8258
vn 0.8257 -0.0000 -0.5641
vn -0.5641 -0.0000 -0.8257
vn -0.8256 -0.0000 0.5642
s 0
usemtl LeftBox
f 13//4 14//4 15//4
f 15//4 16//4 13//4
f 17//5 18//5 19//5
f 19//5 20//5 17//5
f 13//6 16//6 18//6
f 18//6 17//6 13//6
f 16//7 15//7 19//7
f 19//7 18//7 16//7
f 15//8 14//8 20//8
f 20//8 19//8 15//8
f 14//9 13//9 17//9
f 17//9 20//9 14//9
o Bottom
v -1.000000 -1.000000 -1.000000
v 1.000000 -1.000000 -1.000000
v -1.000000 1.000000 -1.000000
v 1.000000 1.000000 -1.000000
vn -0.0000 -0.0000 1.0000
s 0
usemtl RedWall
f 21//10 22//10 23//10
f 24//10 23//10 22//10
o RightBox
v 0.277400 -1.001200 0.464000
v 0.277400 -1.001200 -0.002800
v 0.744400 -1.001200 -0.002800
v 0.744400 -1.001200 0.464000
v 0.277400 -0.534200 0.464000
v 0.744400 -0.534200 0.464000
v 0.744400 -0.534200 -0.002800
v 0.277400 -0.534200 -0.002800
vn -0.0000 -1.0000 -0.0000
vn -0.0000 1.0000 -0.0000
vn -0.0000 -0.0000 1.0000
vn 1.0000 -0.0000 -0.0000
vn -0.0000 -0.0000 -1.0000
vn -1.0000 -0.0000 -0.0000
s 0
usemtl RightBox
f 25//11 26//11 27//11
f 27//11 28//11 25//11
f 29//12 30//12 31//12
f 31//12 32//12 29//12
f 25//13 28//13 30//13
f 30//13 29//13 25//13
f 28//14 27//14 31//14
f 31//14 30//14 28//14
f 27//15 26//15 32//15
f 32//15 31//15 27//15
f 26//16 25//16 29//16
f 29//16 32//16 26//16
o Roof
v 1.000000 1.000000 1.000000
v -1.000000 1.000000 1.000000
v 1.000000 1.000000 -1.000000
v -1.000000 1.000000 -1.000000
vn -0.0000 -1.0000 -0.0000
s 0
usemtl Roof
f 33//17 34//17 35//17
f 36//17 35//17 34//17
